<mxfile host="65bd71144e">
    <diagram id="v-AlWKLcsZbSKa4LnE1E" name="Page-1">
        <mxGraphModel dx="1022" dy="766" grid="1" gridSize="10" guides="1" tooltips="1" connect="1" arrows="1" fold="1" page="1" pageScale="1" pageWidth="850" pageHeight="1100" math="0" shadow="0">
            <root>
                <mxCell id="0"/>
                <mxCell id="1" parent="0"/>
                <mxCell id="2" value="&lt;div style=&quot;color: rgb(212 , 212 , 212) ; background-color: rgb(30 , 30 , 30) ; font-family: &amp;#34;droid sans mono&amp;#34; , &amp;#34;monospace&amp;#34; , monospace ; font-weight: normal ; line-height: 1&quot;&gt;&lt;div&gt;&lt;span style=&quot;color: #6a9955&quot;&gt;// Задача 13: Напишите программу, которая выводит &lt;/span&gt;&lt;/div&gt;&lt;div&gt;&lt;span style=&quot;color: #6a9955&quot;&gt;// третью цифру заданного числа или сообщает, что &lt;/span&gt;&lt;/div&gt;&lt;div&gt;&lt;span style=&quot;color: #6a9955&quot;&gt;// третьей цифры нет. Решить без использования строк.&lt;/span&gt;&lt;/div&gt;&lt;/div&gt;" style="text;html=1;strokeColor=none;fillColor=none;align=center;verticalAlign=middle;whiteSpace=wrap;rounded=0;" vertex="1" parent="1">
                    <mxGeometry y="40" width="190" height="90" as="geometry"/>
                </mxCell>
                <mxCell id="5" value="" style="edgeStyle=none;html=1;fontSize=12;" edge="1" parent="1" source="3" target="4">
                    <mxGeometry relative="1" as="geometry"/>
                </mxCell>
                <mxCell id="3" value="Start" style="ellipse;whiteSpace=wrap;html=1;fontSize=12;" vertex="1" parent="1">
                    <mxGeometry x="350" y="20" width="190" height="80" as="geometry"/>
                </mxCell>
                <mxCell id="7" value="" style="edgeStyle=none;html=1;fontSize=12;" edge="1" parent="1" source="4" target="6">
                    <mxGeometry relative="1" as="geometry"/>
                </mxCell>
                <mxCell id="4" value="int number = 123" style="whiteSpace=wrap;html=1;" vertex="1" parent="1">
                    <mxGeometry x="385" y="140" width="120" height="60" as="geometry"/>
                </mxCell>
                <mxCell id="9" value="" style="edgeStyle=none;html=1;fontSize=12;" edge="1" parent="1" source="6" target="8">
                    <mxGeometry relative="1" as="geometry"/>
                </mxCell>
                <mxCell id="10" value="нет" style="edgeLabel;html=1;align=center;verticalAlign=middle;resizable=0;points=[];fontSize=12;" vertex="1" connectable="0" parent="9">
                    <mxGeometry x="-0.2851" y="2" relative="1" as="geometry">
                        <mxPoint as="offset"/>
                    </mxGeometry>
                </mxCell>
                <mxCell id="19" value="" style="edgeStyle=none;html=1;fontSize=12;" edge="1" parent="1" source="6" target="18">
                    <mxGeometry relative="1" as="geometry"/>
                </mxCell>
                <mxCell id="6" value="number &amp;gt; 99" style="rhombus;whiteSpace=wrap;html=1;" vertex="1" parent="1">
                    <mxGeometry x="40" y="130" width="195" height="190" as="geometry"/>
                </mxCell>
                <mxCell id="8" value="третьего числа нет" style="shape=document;whiteSpace=wrap;html=1;boundedLbl=1;" vertex="1" parent="1">
                    <mxGeometry x="660" y="315" width="120" height="80" as="geometry"/>
                </mxCell>
                <mxCell id="16" value="" style="edgeStyle=none;html=1;fontSize=12;" edge="1" parent="1" source="14" target="15">
                    <mxGeometry relative="1" as="geometry"/>
                </mxCell>
                <mxCell id="17" value="да" style="edgeLabel;html=1;align=center;verticalAlign=middle;resizable=0;points=[];fontSize=12;" vertex="1" connectable="0" parent="16">
                    <mxGeometry x="-0.3556" y="2" relative="1" as="geometry">
                        <mxPoint as="offset"/>
                    </mxGeometry>
                </mxCell>
                <mxCell id="22" value="" style="edgeStyle=none;html=1;fontSize=12;" edge="1" parent="1" source="14" target="21">
                    <mxGeometry relative="1" as="geometry"/>
                </mxCell>
                <mxCell id="31" style="edgeStyle=none;html=1;exitX=0;exitY=0.5;exitDx=0;exitDy=0;fontSize=12;" edge="1" parent="1" source="14">
                    <mxGeometry relative="1" as="geometry">
                        <mxPoint x="350" y="448" as="targetPoint"/>
                    </mxGeometry>
                </mxCell>
                <mxCell id="14" value="check&amp;nbsp; == 0?" style="rhombus;whiteSpace=wrap;html=1;fontSize=12;" vertex="1" parent="1">
                    <mxGeometry x="350" y="380" width="140" height="135" as="geometry"/>
                </mxCell>
                <mxCell id="15" value="int res = check % 10" style="whiteSpace=wrap;html=1;" vertex="1" parent="1">
                    <mxGeometry x="500" y="540" width="120" height="60" as="geometry"/>
                </mxCell>
                <mxCell id="24" value="" style="edgeStyle=none;html=1;fontSize=12;" edge="1" parent="1" source="18" target="23">
                    <mxGeometry relative="1" as="geometry"/>
                </mxCell>
                <mxCell id="30" style="edgeStyle=none;html=1;fontSize=12;" edge="1" parent="1" source="18">
                    <mxGeometry relative="1" as="geometry">
                        <mxPoint x="360" y="448" as="targetPoint"/>
                    </mxGeometry>
                </mxCell>
                <mxCell id="18" value="int check = number / 1000" style="whiteSpace=wrap;html=1;" vertex="1" parent="1">
                    <mxGeometry x="77.5" y="370" width="120" height="60" as="geometry"/>
                </mxCell>
                <mxCell id="26" style="edgeStyle=none;html=1;fontSize=12;entryX=0.371;entryY=1;entryDx=0;entryDy=0;entryPerimeter=0;" edge="1" parent="1" source="21" target="23">
                    <mxGeometry relative="1" as="geometry">
                        <mxPoint x="130" y="700" as="targetPoint"/>
                        <Array as="points">
                            <mxPoint x="130" y="810"/>
                        </Array>
                    </mxGeometry>
                </mxCell>
                <mxCell id="27" value="да" style="edgeLabel;html=1;align=center;verticalAlign=middle;resizable=0;points=[];fontSize=12;" vertex="1" connectable="0" parent="26">
                    <mxGeometry x="-0.6278" y="2" relative="1" as="geometry">
                        <mxPoint as="offset"/>
                    </mxGeometry>
                </mxCell>
                <mxCell id="29" value="" style="edgeStyle=none;html=1;fontSize=12;" edge="1" parent="1" source="21" target="28">
                    <mxGeometry relative="1" as="geometry"/>
                </mxCell>
                <mxCell id="21" value="check &amp;gt; 99?" style="rhombus;whiteSpace=wrap;html=1;" vertex="1" parent="1">
                    <mxGeometry x="230" y="620" width="80" height="80" as="geometry"/>
                </mxCell>
                <mxCell id="32" style="edgeStyle=none;html=1;fontSize=12;" edge="1" parent="1" source="23" target="14">
                    <mxGeometry relative="1" as="geometry"/>
                </mxCell>
                <mxCell id="23" value="check&amp;nbsp; = check / 1000" style="whiteSpace=wrap;html=1;" vertex="1" parent="1">
                    <mxGeometry x="77.5" y="490" width="120" height="60" as="geometry"/>
                </mxCell>
                <mxCell id="28" value="check = check % 100" style="whiteSpace=wrap;html=1;" vertex="1" parent="1">
                    <mxGeometry x="505" y="700" width="120" height="60" as="geometry"/>
                </mxCell>
            </root>
        </mxGraphModel>
    </diagram>
</mxfile>